<?xml version="1.0" encoding="utf-8"?>
<!-- Generator: Adobe Illustrator 18.0.0, SVG Export Plug-In . SVG Version: 6.00 Build 0)  -->
<!DOCTYPE svg PUBLIC "-//W3C//DTD SVG 1.1//EN" "http://www.w3.org/Graphics/SVG/1.1/DTD/svg11.dtd">
<svg version="1.1" id="Layer_1" xmlns="http://www.w3.org/2000/svg" xmlns:xlink="http://www.w3.org/1999/xlink" x="0px" y="0px"
	 viewBox="0 0 134.9 50" enable-background="new 0 0 134.9 50" xml:space="preserve">
<g>
	<g>
		<path fill="#FFFFFF" d="M15.2,25.5h-5.1v11.9H0V0.6h15.8c8.6,0,14.4,3.3,14.4,12.2C30.2,22.2,24,25.5,15.2,25.5z M15.6,8.9h-5.5
			v8.3h5.4c3.3,0,4.6-1.4,4.6-4.2C20,10.5,18.8,8.9,15.6,8.9z"/>
		<path fill="#FFFFFF" d="M49.8,38C38.9,38,33,29.9,33,19C33,7.2,40,0,49.9,0C58.9,0,62.5,3.9,65,10.8l-9.3,3.6
			c-1.3-3.4-2.6-5.6-5.9-5.6c-4.3,0-6.1,4.3-6.1,10.1c0,5.6,1.8,10.1,6.2,10.1c3.2,0,4.6-1.7,6.6-5.2l8.6,4.6
			C62.7,33.3,58.6,38,49.8,38z"/>
		<path fill="#FFFFFF" d="M85.8,37.4H68.1V0.6h17.8c9.2,0,12.9,3.4,12.9,9.6c0,4-2,5.8-4.4,7.2c3.3,1.4,5.3,4,5.3,8.2
			C99.6,33,95,37.4,85.8,37.4z M85.6,8.6h-7.7v5.8h7.7c2.4,0,3.2-1.2,3.2-2.9C88.8,9.9,88,8.6,85.6,8.6z M86,22.2h-8.1v7.2h8
			c2.5,0,3.7-1.5,3.7-3.6C89.6,23.6,88.4,22.2,86,22.2z"/>
		<path fill="#FFFFFF" d="M118.6,38c-9.3,0-16-4.6-16-16.3V0.6H113v21.1c0,4.5,1.8,7.3,5.8,7.3c4,0,5.7-2.8,5.7-7.3V0.6h10.4v21.1
			C134.9,33.4,127.9,38,118.6,38z"/>
	</g>
	<g>
		<path fill="#FFFFFF" d="M2.1,48.1H1.4v1.7H0v-5.2h2.2c1.2,0,2,0.5,2,1.7C4.2,47.7,3.4,48.1,2.1,48.1z M2.2,45.8H1.4V47h0.8
			c0.5,0,0.6-0.2,0.6-0.6C2.8,46.1,2.6,45.8,2.2,45.8z"/>
		<path fill="#FFFFFF" d="M7.6,49.8l-0.8-1.7H6.2v1.7H4.7v-5.2h2.3c1.2,0,2,0.5,2,1.7c0,0.8-0.4,1.3-0.9,1.5l1,2H7.6z M7,45.8H6.2
			V47H7c0.5,0,0.7-0.2,0.7-0.6C7.6,46.1,7.5,45.8,7,45.8z"/>
		<path fill="#FFFFFF" d="M11.9,49.9c-1.4,0-2.4-0.9-2.4-2.7c0-1.7,1-2.7,2.4-2.7c1.4,0,2.4,0.9,2.4,2.7
			C14.3,48.9,13.3,49.9,11.9,49.9z M11.9,45.8c-0.6,0-0.9,0.5-0.9,1.4c0,0.9,0.3,1.4,0.9,1.4c0.6,0,0.9-0.5,0.9-1.4
			S12.5,45.8,11.9,45.8z"/>
		<path fill="#FFFFFF" d="M17.6,49.8h-1.4l-1.8-5.2H16l0.4,1.4c0.2,0.6,0.4,1.7,0.5,2.2c0.1-0.5,0.3-1.5,0.5-2.2l0.4-1.4h1.6
			L17.6,49.8z"/>
		<path fill="#FFFFFF" d="M19.9,49.8v-5.2h1.5v5.2H19.9z"/>
		<path fill="#FFFFFF" d="M23.9,49.8h-1.7v-5.2h1.8c1.6,0,2.7,0.6,2.7,2.6C26.7,49.1,25.8,49.8,23.9,49.8z M24.1,45.9h-0.4v2.7H24
			c0.9,0,1.2-0.3,1.2-1.4C25.3,46.3,25,45.9,24.1,45.9z"/>
		<path fill="#FFFFFF" d="M27.4,49.8v-5.2h1.5v5.2H27.4z"/>
		<path fill="#FFFFFF" d="M33.2,49.8l-1.2-1.7c-0.2-0.3-0.7-1-0.8-1.2c0,0.2,0,0.9,0,1.3v1.6h-1.4v-5.2h1.3l1.1,1.5
			c0.2,0.3,0.7,1,0.8,1.2c0-0.2,0-0.9,0-1.3v-1.4h1.4v5.2H33.2z"/>
		<path fill="#FFFFFF" d="M37.4,49.9c-1.4,0-2.4-1-2.4-2.7c0-1.5,0.8-2.7,2.4-2.7c1.3,0,1.8,0.5,2.2,1.4l-1.3,0.5
			c-0.2-0.4-0.4-0.7-0.9-0.7c-0.7,0-0.9,0.6-0.9,1.4c0,1,0.3,1.5,1,1.5c0.6,0,0.8-0.3,0.9-0.6h-0.9V47h2.3v0.6
			C39.7,49.1,38.9,49.9,37.4,49.9z"/>
		<path fill="#FFFFFF" d="M44.6,49.9c-0.8,0-1.6-0.3-2.2-0.6l0.7-1.1c0.4,0.3,1,0.5,1.5,0.5c0.5,0,0.7-0.1,0.7-0.3
			c0-0.2-0.2-0.3-0.9-0.5c-1.2-0.3-1.8-0.6-1.8-1.7c0-1,0.8-1.6,2-1.6c0.9,0,1.5,0.2,2.1,0.6L46,46.3c-0.5-0.3-0.9-0.5-1.4-0.5
			c-0.4,0-0.5,0.1-0.5,0.3c0,0.2,0.2,0.3,0.8,0.4c1.3,0.3,1.9,0.7,1.9,1.7C46.7,49.4,45.8,49.9,44.6,49.9z"/>
		<path fill="#FFFFFF" d="M50.6,49.8l-0.3-0.9h-1.6l-0.3,0.9h-1.5l1.9-5.2h1.4l1.9,5.2H50.6z M49.9,47.4c-0.2-0.7-0.3-0.9-0.3-1.3
			c-0.1,0.3-0.1,0.6-0.3,1.3l-0.1,0.3h0.9L49.9,47.4z"/>
		<path fill="#FFFFFF" d="M54,45.9v0.7h1.6v1.2H54v2h-1.4v-5.2h4.1v1.2H54z"/>
		<path fill="#FFFFFF" d="M57.2,49.8v-5.2h4v1.2h-2.5v0.7h1.5v1.2h-1.5v0.9h2.6v1.2H57.2z"/>
		<path fill="#FFFFFF" d="M66.2,49.9c-0.8,0-1.6-0.3-2.2-0.6l0.7-1.1c0.4,0.3,1,0.5,1.5,0.5c0.5,0,0.7-0.1,0.7-0.3
			c0-0.2-0.2-0.3-0.9-0.5c-1.2-0.3-1.8-0.6-1.8-1.7c0-1,0.8-1.6,2-1.6c0.9,0,1.5,0.2,2.1,0.6l-0.7,1.1c-0.5-0.3-0.9-0.5-1.4-0.5
			c-0.4,0-0.5,0.1-0.5,0.3c0,0.2,0.2,0.3,0.8,0.4c1.3,0.3,1.9,0.7,1.9,1.7C68.3,49.4,67.4,49.9,66.2,49.9z"/>
		<path fill="#FFFFFF" d="M71.9,47.9v1.9h-1.4v-1.9l-1.9-3.3h1.7l0.4,0.8c0.3,0.5,0.5,1,0.6,1.3c0.1-0.3,0.3-0.8,0.6-1.3l0.4-0.8
			h1.6L71.9,47.9z"/>
		<path fill="#FFFFFF" d="M76,49.9c-0.8,0-1.6-0.3-2.2-0.6l0.7-1.1c0.4,0.3,1,0.5,1.5,0.5c0.5,0,0.7-0.1,0.7-0.3
			c0-0.2-0.2-0.3-0.9-0.5c-1.2-0.3-1.8-0.6-1.8-1.7c0-1,0.8-1.6,2-1.6c0.9,0,1.5,0.2,2.1,0.6l-0.7,1.1c-0.5-0.3-0.9-0.5-1.4-0.5
			c-0.4,0-0.5,0.1-0.5,0.3c0,0.2,0.2,0.3,0.8,0.4c1.3,0.3,1.9,0.7,1.9,1.7C78.1,49.4,77.2,49.9,76,49.9z"/>
		<path fill="#FFFFFF" d="M81.4,45.9v3.9H80v-3.9h-1.4v-1.2h4.3v1.2H81.4z"/>
		<path fill="#FFFFFF" d="M83.4,49.8v-5.2h4v1.2h-2.5v0.7h1.5v1.2h-1.5v0.9h2.6v1.2H83.4z"/>
		<path fill="#FFFFFF" d="M92,49.8v-1.2c0-0.5,0-1,0-1.4c-0.2,0.4-0.4,1-0.6,1.3L90.7,50L90,48.6c-0.2-0.4-0.4-1-0.6-1.3
			c0,0.4,0,0.9,0,1.4v1.2h-1.3v-5.2h1.3l0.6,1.4c0.3,0.7,0.6,1.3,0.6,1.6c0.1-0.3,0.3-0.9,0.7-1.6l0.6-1.4h1.3v5.2H92z"/>
		<path fill="#FFFFFF" d="M96.1,49.9c-0.8,0-1.6-0.3-2.2-0.6l0.7-1.1c0.4,0.3,1,0.5,1.5,0.5c0.5,0,0.7-0.1,0.7-0.3
			c0-0.2-0.2-0.3-0.9-0.5c-1.2-0.3-1.8-0.6-1.8-1.7c0-1,0.8-1.6,2-1.6c0.9,0,1.5,0.2,2.1,0.6l-0.7,1.1C97,46,96.6,45.8,96,45.8
			c-0.4,0-0.5,0.1-0.5,0.3c0,0.2,0.2,0.3,0.8,0.4c1.3,0.3,1.9,0.7,1.9,1.7C98.2,49.4,97.3,49.9,96.1,49.9z"/>
		<path fill="#FFFFFF" d="M103.4,49.9c-1.4,0-2.4-0.9-2.4-2.7c0-1.7,1-2.7,2.4-2.7c1.4,0,2.4,0.9,2.4,2.7
			C105.8,48.9,104.8,49.9,103.4,49.9z M103.4,45.8c-0.6,0-0.9,0.5-0.9,1.4c0,0.9,0.3,1.4,0.9,1.4c0.6,0,0.9-0.5,0.9-1.4
			S103.9,45.8,103.4,45.8z"/>
		<path fill="#FFFFFF" d="M107.9,45.9v0.7h1.6v1.2h-1.6v2h-1.4v-5.2h4.1v1.2H107.9z"/>
		<path fill="#FFFFFF" d="M118.2,49.8h-1.3l-0.2-1.1c-0.2-0.8-0.3-1.8-0.4-2.1c0,0.4-0.2,1.3-0.4,2.1l-0.2,1.1h-1.3l-1.2-5.2h1.5
			l0.1,0.9c0.1,0.7,0.3,1.6,0.3,2.2c0.1-0.6,0.2-1.5,0.4-2.2l0.2-0.9h1.3l0.2,0.9c0.2,0.7,0.3,1.6,0.4,2.2c0.1-0.6,0.2-1.5,0.3-2.2
			l0.1-0.9h1.5L118.2,49.8z"/>
		<path fill="#FFFFFF" d="M122,49.9c-1.4,0-2.4-0.9-2.4-2.7c0-1.7,1-2.7,2.4-2.7c1.4,0,2.4,0.9,2.4,2.7
			C124.4,48.9,123.4,49.9,122,49.9z M122,45.8c-0.6,0-0.9,0.5-0.9,1.4c0,0.9,0.3,1.4,0.9,1.4c0.6,0,0.9-0.5,0.9-1.4
			S122.6,45.8,122,45.8z"/>
		<path fill="#FFFFFF" d="M127.9,49.8l-0.8-1.7h-0.6v1.7h-1.4v-5.2h2.3c1.2,0,2,0.5,2,1.7c0,0.8-0.4,1.3-0.9,1.5l1,2H127.9z
			 M127.3,45.8h-0.9V47h0.8c0.5,0,0.7-0.2,0.7-0.6C128,46.1,127.8,45.8,127.3,45.8z"/>
		<path fill="#FFFFFF" d="M133.2,49.8l-1.1-2.2l-0.5,0.6v1.6h-1.5v-5.2h1.5v0.6c0,0.4,0,0.9,0,1.3c0.2-0.3,0.7-0.9,1-1.4l0.4-0.5
			h1.7l-1.6,1.8l1.7,3.3H133.2z"/>
	</g>
</g>
</svg>
